Coordinates
version=1
nRows=12
nColumns=24
inDegrees=yes

Units are S.I. units (second, meters, Newtons, ...)
Angles are in degrees.

endheader
time	pelvis_tilt	pelvis_list	pelvis_rotation	pelvis_tx	pelvis_ty	pelvis_tz	hip_flexion_r	hip_adduction_r	hip_rotation_r	knee_angle_r	ankle_angle_r	subtalar_angle_r	mtp_angle_r	hip_flexion_l	hip_adduction_l	hip_rotation_l	knee_angle_l	ankle_angle_l	subtalar_angle_l	mtp_angle_l	lumbar_extension	lumbar_bending	lumbar_rotation
      0.43300000	     -6.31624048	      3.14142281	      0.55880392	     -0.82017384	      1.02435906	      0.30019931	     36.28666328	     -2.25543389	     -1.84752876	     -6.76728143	     10.61631567	     -4.03058286	      7.72698652	    -11.10184260	      4.72975489	      2.83292117	     -6.59325498	     21.32604860	      9.63314796	      2.00456774	     -9.98859347	     -2.64463166	     -3.54229194
      0.43716667	     -6.32302565	      3.16097541	      0.71015828	     -0.81410654	      1.02332964	      0.30030126	     36.20345654	     -2.28249130	     -1.60461261	     -7.10076301	     10.58369683	     -4.18646744	      7.73159693	    -11.22252677	      4.69595765	      2.83862936	     -7.08549056	     21.44792053	      9.84730623	      2.04748830	     -9.96678111	     -2.54070198	     -3.64868837
      0.44133333	     -6.33344577	      3.17446703	      0.86648871	     -0.80796425	      1.02234549	      0.30038322	     36.11930809	     -2.31107600	     -1.44218772	     -7.46394232	     10.55734099	     -4.26411129	      7.73567904	    -11.34261395	      4.65798658	      2.92737145	     -7.58010660	     21.53596229	      9.92083420	      2.07183204	     -9.92928089	     -2.44012534	     -3.65115050
      0.44550000	     -6.36820894	      3.16439238	      1.01560544	     -0.80177687	      1.02135376	      0.30052723	     36.02306489	     -2.30385168	     -1.18687949	     -7.77490832	     10.39224516	     -4.51153557	      7.75641115	    -11.36916180	      4.57617218	      2.74033451	     -8.21788001	     21.68025804	     10.43247796	      2.19511274	     -9.86316048	     -2.28533600	     -3.79073148
      0.44966667	     -6.37739666	      3.16078166	      1.16421852	     -0.79557783	      1.02045245	      0.30065223	     35.90602872	     -2.30868551	     -1.01353664	     -8.12077730	     10.23782891	     -4.65296740	      7.79072049	    -11.42446601	      4.50446174	      2.65070973	     -8.85144114	     21.78112927	     10.79736584	      2.35519569	     -9.82884063	     -2.15373520	     -3.80942231
      0.45383333	     -6.40696030	      3.14760811	      1.32008854	     -0.78932275	      1.01958114	      0.30077870	     35.79391120	     -2.30839281	     -0.86290733	     -8.45587931	     10.02361181	     -4.81561211	      7.83116068	    -11.44227819	      4.41843114	      2.56620142	     -9.51859812	     21.84060071	     11.13509263	      2.53939866	     -9.75525582	     -2.00292009	     -3.87636867
      0.45800000	     -6.41533428	      3.14057811	      1.46013084	     -0.78307340	      1.01878686	      0.30093806	     35.66312828	     -2.30630941	     -0.72592810	     -8.80614064	      9.75524284	     -4.98086472	      7.91061985	    -11.45295210	      4.33467303	      2.41474252	    -10.24556880	     21.89204974	     11.56371142	      2.87342823	     -9.72776557	     -1.87348193	     -3.89432438
      0.46216667	     -6.46385513	      3.09920116	      1.61620029	     -0.77673423	      1.01801244	      0.30105628	     35.55019552	     -2.28342677	     -0.63697470	     -9.12787247	      9.42720842	     -5.17413966	      7.96314522	    -11.41398635	      4.21443245	      2.32733118	    -10.98965957	     21.87717305	     11.86608562	      3.11116977	     -9.61137213	     -1.67136984	     -3.94691807
      0.46633333	     -6.49257002	      3.06047691	      1.75710961	     -0.77038974	      1.01732505	      0.30121643	     35.41926071	     -2.25614565	     -0.56423555	     -9.45624206	      9.03496716	     -5.38108716	      8.02808144	    -11.36413406	      4.09113038	      2.16793860	    -11.79561058	     21.86073713	     12.28118568	      3.40575609	     -9.53497044	     -1.48775318	     -3.95885268
      0.47050000	     -6.51440758	      3.01946345	      1.88730814	     -0.76405772	      1.01670597	      0.30140151	     35.28808369	     -2.22253803	     -0.51381966	     -9.79799613	      8.59309089	     -5.60219504	      8.10604456	    -11.29602238	      3.96289839	      1.99215755	    -12.64779513	     21.79916640	     12.70226083	      3.76981236	     -9.46796251	     -1.29929424	     -3.97342270
      0.47466667	     -6.53946085	      2.98235764	      2.00474747	     -0.75771709	      1.01615182	      0.30161963	     35.17040408	     -2.18864418	     -0.47354048	    -10.15976574	      8.08483831	     -5.83382518	      8.22044589	    -11.19855147	      3.83407856	      1.77517971	    -13.54567834	     21.69472692	     13.18413215	      4.32984214	     -9.40859718	     -1.13402856	     -3.97059050
      0.47883333	     -6.56951899	      2.91835404	      2.13001466	     -0.75132666	      1.01567335	      0.30178488	     35.06496168	     -2.14598013	     -0.55437242	    -10.54414610	      7.60997738	     -5.93129738	      8.93218221	    -11.08331671	      3.68057771	      1.62610687	    -14.45829219	     21.45603218	     13.48613298	      7.87768721	     -9.32058030	     -0.91842103	     -3.86952967
